<svg clip-rule="evenodd" fill-rule="evenodd" stroke-linejoin="round" stroke-miterlimit="2" viewBox="0 0 560 400" xmlns="http://www.w3.org/2000/svg">
  <g fill-rule="nonzero">
    <g fill="#5a5564">
      <path d="m374.618 112.96-8.237 8.237c40.527 44.319 40.527 113.067 0 157.386l8.237 8.237c45.082-48.902 45.082-125.15 0-174.052zM201.39 113.674c44.318-40.527 113.066-40.527 157.385 0l8.237-8.238c-48.901-45.082-125.15-45.082-174.052 0zM193.674 278.665c-40.478-44.308-40.478-112.995 0-157.303l-8.238-8.237c-45.082 48.901-45.082 125.15 0 174.052zM358.665 286.27c-44.319 40.528-113.067 40.528-157.386 0l-8.237 8.238c48.902 45.082 125.151 45.082 174.053 0z"/>
    </g>
    <path d="M332.004 172.515c-1.647-17.188-16.474-22.954-35.228-24.712v-23.668H282.28v23.229h-11.587v-23.229h-14.388v23.833h-29.407v15.513s10.709-.192 10.544 0c3.99-.439 7.658 2.4 8.237 6.37v65.24a5.073 5.073 0 0 1-1.757 3.541 5.032 5.032 0 0 1-3.734 1.263c.192.165-10.544 0-10.544 0l-2.746 17.326h29.132v24.217h14.498v-23.86h11.587v23.75h14.525v-23.942c24.492-1.483 41.57-7.524 43.712-30.45 1.73-18.452-6.947-26.69-20.813-30.011 8.43-4.147 13.647-11.835 12.466-24.41zm-20.318 51.565c0 18.012-30.863 15.953-40.692 15.953v-31.96c9.83.027 40.692-2.801 40.692 16.007zm-6.727-45.03c0 16.474-25.755 14.47-33.938 14.47v-29.05c8.183 0 33.938-2.581 33.938 14.58z" fill="#f09242"/>
    <path d="M279.972 350C197.696 349.986 130 282.276 130 200c0-82.287 67.713-150 150-150 82.276 0 149.986 67.696 150 149.972V200c0 82.287-67.713 150-150 150h-.028zm0-288.303c-75.785.06-138.11 62.435-138.11 138.22 0 75.827 62.394 138.221 138.22 138.221 75.805 0 138.19-62.361 138.22-138.166v-.055c0-75.826-62.393-138.22-138.22-138.22h-.11z" fill="#282138"/>
  </g>
</svg>
