<svg xmlns="http://www.w3.org/2000/svg" viewBox="-2.349 -2.001 24.698 19.219" fill="none"><path d="M1.11 0C.5 0 0 .51 0 1.14c0 .63.5 1.14 1.11 1.14H2.5v2.29H0v4.57c1.84 0 3.33 1.54 3.33 3.43v2.29c0 .63.5 1.14 1.11 1.14h1.11c.61 0 1.11-.51 1.11-1.14v-2.29c0-1.89 1.49-3.43 3.33-3.43s3.33 1.54 3.33 3.43v2.29c0 .63.5 1.14 1.11 1.14h1.11c.61 0 1.11-.51 1.11-1.14v-2.29c0-1.89 1.49-3.43 3.33-3.43V4.57h-2.5V2.29h1.39c.63 0 1.13-.51 1.13-1.15C20 .51 19.5 0 18.89 0H1.11zm14.72 2.29v2.29h-2.78V2.29h2.78zm-4.44 0v2.29H8.61V2.29h2.78zm-4.45 0v2.29H4.17V2.29h2.77z" fill="currentColor" style="width:24px"/></svg>