<?xml version="1.0" encoding="utf-8"?>
<!-- Generator: Adobe Illustrator 28.0.0, SVG Export Plug-In . SVG Version: 6.00 Build 0)  -->
<svg version="1.1" id="レイヤー_1" xmlns="http://www.w3.org/2000/svg" xmlns:xlink="http://www.w3.org/1999/xlink" x="0px"
	 y="0px" viewBox="0 0 20 16" style="enable-background:new 0 0 20 16;  filter: brightness(0) invert(0.7);" xml:space="preserve">
<style type="text/css">
	.st0{fill:#495466;}
</style>
<path class="st0" d="M1.11,0C0.5,0,0,0.51,0,1.14c0,0.63,0.5,1.14,1.11,1.14H2.5v2.29H0v4.57c1.84,0,3.33,1.54,3.33,3.43v2.29
	c0,0.63,0.5,1.14,1.11,1.14h1.11c0.61,0,1.11-0.51,1.11-1.14v-2.29c0-1.89,1.49-3.43,3.33-3.43c1.84,0,3.33,1.54,3.33,3.43v2.29
	c0,0.63,0.5,1.14,1.11,1.14h1.11c0.61,0,1.11-0.51,1.11-1.14v-2.29c0-1.89,1.49-3.43,3.33-3.43V4.57h-2.5V2.29h1.39
	C19.5,2.29,20,1.78,20,1.14C20,0.51,19.5,0,18.89,0H1.11z M15.83,2.29v2.29h-2.78V2.29H15.83z M11.39,2.29v2.29H8.61V2.29H11.39z
	 M6.94,2.29v2.29H4.17V2.29H6.94z"/>
</svg>
